<?xml version="1.0" encoding="UTF-8"?>
<svg id="Layer_1" data-name="Layer 1" xmlns="http://www.w3.org/2000/svg" viewBox="0 0 855.53 83.01">
  <defs>
    <style>
      .cls-1, .cls-2 {
        fill: #d49e00;
      }

      .cls-3, .cls-4 {
        fill: #fff;
      }

      .cls-5 {
        letter-spacing: 0em;
      }

      .cls-6 {
        fill: #b3b3b3;
      }

      .cls-7 {
        letter-spacing: -.03em;
      }

      .cls-8 {
        letter-spacing: -.02em;
      }

      .cls-9 {
        letter-spacing: -.02em;
      }

      .cls-10 {
        letter-spacing: -.01em;
      }

      .cls-11 {
        letter-spacing: -.03em;
      }

      .cls-12 {
        letter-spacing: -.03em;
      }

      .cls-13 {
        letter-spacing: -.03em;
      }

      .cls-4, .cls-2 {
        font-family: Inter-SemiBold, Inter;
        font-size: 56.17px;
        font-weight: 600;
      }
    </style>
  </defs>
  <g>
    <path class="cls-3" d="M222.06,52.42c-.21.05-.46.1-.82.15-.36.05-.77.1-1.23.1-.62,0-1.23-.1-1.74-.31s-.97-.56-1.33-1.13-.51-1.44-.51-2.56v-16.46h6.15v-4.72h-6.15v-7.18h-5.85v7.18h-4.41v4.67h4.41v17.69c0,1.79.41,3.33,1.23,4.51s1.9,2.1,3.23,2.67c1.33.56,2.77.87,4.31.82.92,0,1.69-.1,2.31-.21.62-.15,1.13-.26,1.44-.41l-1.03-4.82Z"/>
    <path class="cls-3" d="M197.91,28.37c-1.54-.82-3.33-1.28-5.38-1.28-2.31,0-4.2.46-5.64,1.44s-2.51,2.2-3.23,3.85h-.36l.21-14.87h-5.74l-.21,39.89h5.85v-17.74c0-1.59.31-2.92.92-4.05.62-1.13,1.49-2,2.56-2.56s2.31-.87,3.69-.87c2,0,3.59.62,4.72,1.79,1.13,1.23,1.69,2.92,1.69,5.13v18.36h5.85v-19.02c0-2.51-.41-4.56-1.28-6.26-.87-1.69-2.1-2.92-3.64-3.79Z"/>
    <path class="cls-3" d="M171.3,27.5h-5.74v4.87h-.41c-.36-.62-.82-1.33-1.49-2.15-.62-.82-1.54-1.54-2.67-2.15s-2.67-.92-4.51-.92c-2.41,0-4.56.62-6.46,1.79-1.9,1.23-3.38,2.97-4.46,5.23-1.08,2.26-1.64,5.03-1.64,8.2s.56,5.85,1.64,8.05c1.08,2.15,2.62,3.79,4.46,4.92,1.9,1.13,4,1.64,6.41,1.64,1.85,0,3.33-.31,4.46-.87,1.13-.56,2.05-1.23,2.72-2,.67-.77,1.18-1.49,1.54-2.1h.36v5.9c0,2.31-.72,4-2.15,5.08-1.44,1.08-3.28,1.59-5.49,1.59-1.59,0-2.92-.21-3.95-.67-1.03-.46-1.85-.97-2.41-1.64-.56-.62-1.08-1.23-1.44-1.79l-5.03,2.05c.51,1.18,1.33,2.31,2.41,3.33s2.46,1.85,4.15,2.46,3.74.92,6.15.92c2.56,0,4.82-.41,6.87-1.18,2.05-.77,3.64-2,4.87-3.64,1.18-1.64,1.79-3.74,1.79-6.31v-30.61h0ZM164.63,47.6c-.62,1.49-1.49,2.62-2.67,3.38-1.18.77-2.56,1.18-4.26,1.18s-3.18-.41-4.36-1.23c-1.18-.82-2.05-2-2.67-3.49s-.92-3.18-.92-5.18.31-3.64.87-5.18c.56-1.54,1.49-2.77,2.62-3.69,1.18-.92,2.62-1.33,4.36-1.33s3.13.41,4.31,1.28c1.18.87,2.05,2.05,2.62,3.59.56,1.54.92,3.33.92,5.33.1,2.1-.21,3.85-.82,5.33Z"/>
    <rect class="cls-3" x="132.89" y="27.5" width="5.85" height="29.95"/>
    <path class="cls-3" d="M135.81,16.89c-1.95,0-3.49,1.54-3.49,3.49s1.54,3.49,3.49,3.49,3.49-1.54,3.49-3.49-1.59-3.49-3.49-3.49Z"/>
    <path class="cls-3" d="M119.41,40.68l-4.77-1.08c-1.64-.41-2.87-.87-3.59-1.49s-1.13-1.44-1.13-2.41c0-1.18.56-2.1,1.64-2.82s2.46-1.13,4.15-1.13c1.23,0,2.2.21,3.03.56.82.41,1.44.87,1.9,1.49s.82,1.28,1.03,1.95l5.28-.92c-.62-2.36-1.85-4.2-3.69-5.59-1.85-1.38-4.41-2.1-7.64-2.1-2.26,0-4.26.36-6,1.13s-3.13,1.79-4.1,3.13c-.97,1.33-1.49,2.87-1.49,4.62,0,2.15.67,3.9,2,5.28,1.33,1.38,3.38,2.41,6.2,3.03l5.08,1.13c1.44.31,2.51.82,3.18,1.44.72.62,1.03,1.44,1.03,2.36,0,1.18-.56,2.15-1.74,2.92-1.13.82-2.67,1.18-4.56,1.18-1.74,0-3.18-.36-4.26-1.13s-1.79-1.85-2.15-3.33l-5.64.87c.46,2.67,1.79,4.72,3.9,6.1,2.1,1.44,4.87,2.15,8.2,2.15,2.41,0,4.56-.41,6.36-1.18s3.28-1.9,4.31-3.28c1.03-1.38,1.54-2.97,1.54-4.77,0-2.1-.67-3.85-2-5.18-1.23-1.28-3.28-2.26-6.05-2.92Z"/>
    <path class="cls-3" d="M93.82,28.43c-1.54-.87-3.33-1.28-5.33-1.28-2.26,0-4.1.46-5.59,1.44s-2.56,2.26-3.23,3.79h-.36v-4.87h-5.59v29.95h5.85v-17.74c0-1.59.31-2.92.92-4.05s1.44-2,2.46-2.56c1.03-.56,2.26-.87,3.59-.87,2,0,3.54.62,4.67,1.85,1.13,1.23,1.69,2.92,1.69,5.08v18.36h5.85v-19.08c0-2.46-.41-4.56-1.28-6.2-.92-1.69-2.1-2.97-3.64-3.79Z"/>
    <rect class="cls-3" x="61.1" y="27.5" width="5.85" height="29.95"/>
    <path class="cls-3" d="M64.02,16.89c-1.95,0-3.49,1.54-3.49,3.49s1.54,3.49,3.49,3.49,3.49-1.54,3.49-3.49-1.54-3.49-3.49-3.49Z"/>
    <path class="cls-3" d="M46.95,20.58c-2.77-1.54-6.05-2.36-9.9-2.36h-14.05v5.18h13.74c2.87,0,5.23.56,7.18,1.64,1.95,1.13,3.38,2.72,4.36,4.87.97,2.15,1.49,4.72,1.49,7.79s-.51,5.69-1.49,7.85c-.97,2.15-2.46,3.79-4.46,4.92-1.95,1.13-4.46,1.69-7.44,1.69h-7.69v-24.66h-5.69v29.84h13.69c4,0,7.38-.77,10.15-2.36,2.82-1.59,4.97-3.85,6.41-6.77,1.49-2.92,2.2-6.41,2.2-10.51s-.72-7.54-2.2-10.46c-1.44-2.87-3.54-5.13-6.31-6.67Z"/>
    <rect class="cls-3" x="10.54" y="18.22" width="5.85" height="39.18"/>
  </g>
  <text class="cls-2" transform="translate(274.61 57.7)"><tspan class="cls-10" x="0" y="0">Su</tspan><tspan class="cls-5" x="68.94" y="0">r</tspan><tspan class="cls-11" x="91.33" y="0">v</tspan><tspan class="cls-13" x="121.78" y="0">e</tspan><tspan class="cls-9" x="153.33" y="0">y</tspan></text>
  <text class="cls-4" transform="translate(459.06 58.17)"><tspan class="cls-12" x="0" y="0">A</tspan><tspan class="cls-9" x="38.85" y="0">ccele</tspan><tspan class="cls-7" x="180.71" y="0">r</tspan><tspan class="cls-9" x="201.57" y="0">a</tspan><tspan class="cls-8" x="233" y="0">t</tspan><tspan class="cls-10" x="253.18" y="0">or</tspan></text>
  <g>
    <g>
      <rect class="cls-1" x="800.93" y="50.72" width="7.07" height="19.31" transform="translate(192.93 586.53) rotate(-45)"/>
      <rect class="cls-1" x="816.81" y="33.28" width="7.07" height="39.75" transform="translate(277.86 -564.51) rotate(45)"/>
    </g>
    <circle class="cls-6" cx="841.07" cy="32.44" r="3.92"/>
    <rect class="cls-6" x="787.19" y="13.67" width="7.07" height="31.23" transform="translate(252.3 -550.55) rotate(45)"/>
    <circle class="cls-6" cx="808.44" cy="11.57" r="3.92"/>
    <rect class="cls-6" x="809" y="34.26" width="7.07" height="17.87" transform="translate(268.53 -561.9) rotate(45)"/>
    <circle class="cls-6" cx="825.5" cy="30.19" r="3.92"/>
    <rect class="cls-6" x="796.26" y="8.84" width="7.07" height="58.58" transform="translate(261.22 -554.37) rotate(45)"/>
    <circle class="cls-6" cx="827.09" cy="10.81" r="3.92"/>
  </g>
  <rect class="cls-3" x="251.55" y="11.47" width="2.82" height="57.66"/>
</svg>
