<?xml version="1.0" encoding="UTF-8"?>
<svg id="Layer_1" data-name="Layer 1" xmlns="http://www.w3.org/2000/svg" viewBox="0 0 592.09 130.73">
  <defs>
    <style>
      .cls-1 {
        fill: #d49e00;
      }

      .cls-2 {
        fill: #fff;
      }

      .cls-3 {
        fill: #b3b3b3;
      }
    </style>
  </defs>
  <g>
    <path class="cls-2" d="M179.6,108.15c-.16.04-.36.08-.64.12-.28.04-.6.08-.95.08-.48,0-.95-.08-1.35-.24s-.75-.44-1.03-.87-.4-1.11-.4-1.99v-12.75h4.77v-3.65h-4.77v-5.56h-4.53v5.56h-3.42v3.62h3.42v13.71c0,1.39.32,2.58.95,3.5s1.47,1.63,2.5,2.07c1.03.44,2.15.68,3.34.64.72,0,1.31-.08,1.79-.16.48-.12.87-.2,1.11-.32l-.79-3.73Z"/>
    <path class="cls-2" d="M160.89,89.51c-1.19-.64-2.58-.99-4.17-.99-1.79,0-3.26.36-4.37,1.11-1.11.75-1.95,1.71-2.5,2.98h-.28l.16-11.52h-4.45l-.16,30.91h4.53v-13.75c0-1.23.24-2.26.72-3.14.48-.87,1.15-1.55,1.99-1.99s1.79-.68,2.86-.68c1.55,0,2.78.48,3.65,1.39.87.95,1.31,2.26,1.31,3.97v14.22h4.53v-14.74c0-1.95-.32-3.54-.99-4.85-.68-1.31-1.63-2.26-2.82-2.94Z"/>
    <path class="cls-2" d="M140.27,88.84h-4.45v3.77h-.32c-.28-.48-.64-1.03-1.15-1.67-.48-.64-1.19-1.19-2.07-1.67s-2.07-.72-3.5-.72c-1.87,0-3.54.48-5.01,1.39-1.47.95-2.62,2.3-3.46,4.05-.83,1.75-1.27,3.89-1.27,6.36s.44,4.53,1.27,6.24c.83,1.67,2.03,2.94,3.46,3.81,1.47.87,3.1,1.27,4.97,1.27,1.43,0,2.58-.24,3.46-.68.87-.44,1.59-.95,2.11-1.55s.91-1.15,1.19-1.63h.28v4.57c0,1.79-.56,3.1-1.67,3.93-1.11.83-2.54,1.23-4.25,1.23-1.23,0-2.26-.16-3.06-.52-.79-.36-1.43-.75-1.87-1.27-.44-.48-.83-.95-1.11-1.39l-3.89,1.59c.4.91,1.03,1.79,1.87,2.58s1.91,1.43,3.22,1.91,2.9.72,4.77.72c1.99,0,3.73-.32,5.32-.91s2.82-1.55,3.77-2.82c.91-1.27,1.39-2.9,1.39-4.89v-23.72h0ZM135.1,104.41c-.48,1.15-1.15,2.03-2.07,2.62-.91.6-1.99.91-3.3.91s-2.46-.32-3.38-.95-1.59-1.55-2.07-2.7-.72-2.46-.72-4.01.24-2.82.68-4.01,1.15-2.15,2.03-2.86c.91-.72,2.03-1.03,3.38-1.03s2.42.32,3.34.99,1.59,1.59,2.03,2.78.72,2.58.72,4.13c.08,1.63-.16,2.98-.64,4.13Z"/>
    <rect class="cls-2" x="110.51" y="88.84" width="4.53" height="23.2"/>
    <path class="cls-2" d="M112.78,80.62c-1.51,0-2.7,1.19-2.7,2.7s1.19,2.7,2.7,2.7,2.7-1.19,2.7-2.7-1.23-2.7-2.7-2.7Z"/>
    <path class="cls-2" d="M100.07,99.05l-3.69-.83c-1.27-.32-2.22-.68-2.78-1.15s-.87-1.11-.87-1.87c0-.91.44-1.63,1.27-2.18s1.91-.87,3.22-.87c.95,0,1.71.16,2.34.44.64.32,1.11.68,1.47,1.15s.64.99.79,1.51l4.09-.72c-.48-1.83-1.43-3.26-2.86-4.33-1.43-1.07-3.42-1.63-5.92-1.63-1.75,0-3.3.28-4.65.87-1.35.6-2.42,1.39-3.18,2.42s-1.15,2.22-1.15,3.58c0,1.67.52,3.02,1.55,4.09,1.03,1.07,2.62,1.87,4.81,2.34l3.93.87c1.11.24,1.95.64,2.46,1.11.56.48.79,1.11.79,1.83,0,.91-.44,1.67-1.35,2.26-.87.64-2.07.91-3.54.91-1.35,0-2.46-.28-3.3-.87s-1.39-1.43-1.67-2.58l-4.37.68c.36,2.07,1.39,3.65,3.02,4.73,1.63,1.11,3.77,1.67,6.36,1.67,1.87,0,3.54-.32,4.93-.91,1.39-.6,2.54-1.47,3.34-2.54.79-1.07,1.19-2.3,1.19-3.69,0-1.63-.52-2.98-1.55-4.01-.95-.99-2.54-1.75-4.69-2.26Z"/>
    <path class="cls-2" d="M80.24,89.55c-1.19-.68-2.58-.99-4.13-.99-1.75,0-3.18.36-4.33,1.11s-1.99,1.75-2.5,2.94h-.28v-3.77h-4.33v23.2h4.53v-13.75c0-1.23.24-2.26.72-3.14s1.11-1.55,1.91-1.99,1.75-.68,2.78-.68c1.55,0,2.74.48,3.62,1.43.87.95,1.31,2.26,1.31,3.93v14.22h4.53v-14.78c0-1.91-.32-3.54-.99-4.81-.72-1.31-1.63-2.3-2.82-2.94Z"/>
    <rect class="cls-2" x="54.9" y="88.84" width="4.53" height="23.2"/>
    <path class="cls-2" d="M57.16,80.62c-1.51,0-2.7,1.19-2.7,2.7s1.19,2.7,2.7,2.7,2.7-1.19,2.7-2.7-1.19-2.7-2.7-2.7Z"/>
    <path class="cls-2" d="M43.93,83.48c-2.15-1.19-4.69-1.83-7.67-1.83h-10.89v4.01h10.65c2.22,0,4.05.44,5.56,1.27,1.51.87,2.62,2.11,3.38,3.77.75,1.67,1.15,3.65,1.15,6.04s-.4,4.41-1.15,6.08-1.91,2.94-3.46,3.81c-1.51.87-3.46,1.31-5.76,1.31h-5.96v-19.11h-4.41v23.12h10.61c3.1,0,5.72-.6,7.87-1.83,2.18-1.23,3.85-2.98,4.97-5.24,1.15-2.26,1.71-4.97,1.71-8.14s-.56-5.84-1.71-8.1c-1.11-2.22-2.74-3.97-4.89-5.16Z"/>
    <rect class="cls-2" x="15.73" y="81.65" width="4.53" height="30.35"/>
  </g>
  <g>
    <g>
      <path class="cls-1" d="M37.4,28.08c-.19-1.74-.97-3.1-2.34-4.07-1.38-.97-3.16-1.46-5.36-1.46-1.54,0-2.87.23-3.97.7-1.1.47-1.95,1.1-2.53,1.89-.59.8-.88,1.71-.9,2.73,0,.85.2,1.59.59,2.21.39.63.93,1.15,1.61,1.59.68.43,1.43.79,2.25,1.09.82.29,1.66.54,2.49.74l3.83.96c1.54.36,3.03.84,4.46,1.46,1.43.61,2.71,1.38,3.85,2.31,1.14.93,2.04,2.05,2.7,3.37s1,2.86,1,4.63c0,2.39-.61,4.5-1.83,6.31-1.22,1.82-2.99,3.23-5.3,4.25-2.31,1.02-5.1,1.53-8.37,1.53s-5.93-.49-8.27-1.48c-2.33-.98-4.16-2.42-5.47-4.31-1.31-1.89-2.02-4.19-2.12-6.9h7.28c.11,1.42.54,2.61,1.32,3.55.77.94,1.78,1.65,3.02,2.11,1.24.47,2.64.7,4.18.7s3.02-.24,4.24-.73c1.22-.49,2.17-1.16,2.86-2.03s1.04-1.89,1.06-3.06c-.01-1.06-.33-1.94-.94-2.64s-1.47-1.28-2.56-1.75c-1.1-.47-2.38-.89-3.84-1.27l-4.65-1.2c-3.36-.86-6.02-2.18-7.97-3.94s-2.92-4.11-2.92-7.03c0-2.41.66-4.51,1.96-6.32s3.09-3.21,5.36-4.22c2.26-1,4.82-1.51,7.68-1.51s5.44.5,7.63,1.51,3.91,2.39,5.16,4.17c1.25,1.77,1.89,3.81,1.93,6.11h-7.12Z"/>
      <path class="cls-1" d="M70.03,44.81v-17.75h7.22v30.64h-7v-5.45h-.32c-.69,1.72-1.83,3.12-3.4,4.21-1.58,1.09-3.51,1.63-5.81,1.63-2.01,0-3.78-.45-5.32-1.35s-2.74-2.21-3.6-3.93c-.86-1.72-1.3-3.81-1.3-6.25v-19.51h7.22v18.39c0,1.94.53,3.48,1.6,4.63s2.46,1.72,4.19,1.72c1.06,0,2.09-.26,3.09-.78s1.82-1.29,2.46-2.32.97-2.32.97-3.88Z"/>
      <path class="cls-1" d="M83.82,57.7v-30.64h7v5.11h.32c.56-1.77,1.52-3.13,2.88-4.1,1.36-.96,2.92-1.45,4.68-1.45.4,0,.85.02,1.35.05.5.03.91.08,1.25.15v6.64c-.31-.11-.79-.2-1.45-.29-.66-.09-1.29-.13-1.9-.13-1.32,0-2.5.28-3.54.85-1.04.57-1.87,1.35-2.46,2.34-.6,1-.9,2.15-.9,3.45v18.01h-7.22Z"/>
      <path class="cls-1" d="M133.58,27.06l-10.91,30.64h-7.98l-10.91-30.64h7.7l7.04,22.76h.32l7.06-22.76h7.68Z"/>
      <path class="cls-1" d="M150.23,58.3c-3.07,0-5.72-.64-7.95-1.92s-3.94-3.1-5.14-5.46-1.79-5.14-1.79-8.35.6-5.92,1.8-8.31,2.89-4.25,5.06-5.58c2.17-1.34,4.71-2,7.64-2,1.89,0,3.67.3,5.36.91,1.68.61,3.17,1.54,4.47,2.8,1.3,1.26,2.32,2.87,3.06,4.82.74,1.95,1.12,4.26,1.12,6.95v2.21h-25.11v-4.87h18.19c-.01-1.38-.31-2.62-.9-3.7-.58-1.08-1.4-1.94-2.44-2.56s-2.26-.94-3.64-.94c-1.48,0-2.77.36-3.89,1.07-1.12.71-1.98,1.64-2.6,2.79s-.93,2.41-.95,3.78v4.25c0,1.78.33,3.31.98,4.58.65,1.27,1.56,2.24,2.73,2.91s2.54,1.01,4.11,1.01c1.05,0,2-.15,2.85-.45.85-.3,1.59-.74,2.21-1.33.62-.58,1.1-1.31,1.42-2.17l6.74.76c-.43,1.78-1.23,3.33-2.42,4.66-1.19,1.32-2.71,2.35-4.56,3.07-1.85.72-3.96,1.09-6.34,1.09Z"/>
      <path class="cls-1" d="M172.7,69.13c-.98,0-1.89-.08-2.72-.23-.83-.15-1.49-.34-1.98-.55l1.68-5.6c1.57.45,2.89.53,3.96.23s1.95-1.29,2.64-2.98l.62-1.66-11.11-31.27h7.66l7.06,23.14h.32l7.08-23.14,7.72.04-12.31,34.31c-.57,1.6-1.33,2.97-2.27,4.13-.94,1.16-2.1,2.04-3.46,2.66-1.36.62-2.99.93-4.88.93Z"/>
    </g>
    <g>
      <path class="cls-2" d="M204.89,58.17h-7.9l14.38-40.85h9.13l14.4,40.85h-7.9l-10.91-32.47h-.32l-10.89,32.47ZM205.15,42.15h21.54v5.94h-21.54v-5.94Z"/>
      <path class="cls-2" d="M251.54,58.77c-3.06,0-5.68-.67-7.87-2.01-2.19-1.34-3.87-3.2-5.05-5.58-1.18-2.37-1.76-5.11-1.76-8.21s.6-5.86,1.79-8.25,2.89-4.25,5.08-5.58c2.19-1.34,4.78-2,7.77-2,2.49,0,4.69.46,6.61,1.37,1.92.91,3.45,2.19,4.6,3.85,1.14,1.66,1.79,3.59,1.96,5.79h-6.9c-.28-1.48-.94-2.71-1.98-3.7s-2.44-1.49-4.18-1.49c-1.48,0-2.77.4-3.89,1.19-1.12.79-1.98,1.92-2.6,3.4-.62,1.48-.93,3.24-.93,5.3s.31,3.88.92,5.38c.61,1.5,1.47,2.65,2.58,3.45s2.42,1.21,3.92,1.21c1.06,0,2.02-.2,2.86-.61.84-.41,1.55-.99,2.12-1.77.57-.77.96-1.71,1.18-2.81h6.9c-.17,2.17-.81,4.09-1.92,5.75s-2.61,2.97-4.51,3.91-4.14,1.41-6.7,1.41Z"/>
      <path class="cls-2" d="M283.13,58.77c-3.06,0-5.68-.67-7.87-2.01-2.19-1.34-3.87-3.2-5.05-5.58-1.18-2.37-1.76-5.11-1.76-8.21s.6-5.86,1.79-8.25,2.89-4.25,5.08-5.58c2.19-1.34,4.78-2,7.77-2,2.49,0,4.69.46,6.61,1.37,1.92.91,3.45,2.19,4.6,3.85,1.14,1.66,1.79,3.59,1.96,5.79h-6.9c-.28-1.48-.94-2.71-1.98-3.7s-2.44-1.49-4.18-1.49c-1.48,0-2.77.4-3.89,1.19-1.12.79-1.98,1.92-2.6,3.4-.62,1.48-.93,3.24-.93,5.3s.31,3.88.92,5.38c.61,1.5,1.47,2.65,2.58,3.45s2.42,1.21,3.92,1.21c1.06,0,2.02-.2,2.86-.61.84-.41,1.55-.99,2.12-1.77.57-.77.96-1.71,1.18-2.81h6.9c-.17,2.17-.81,4.09-1.92,5.75s-2.61,2.97-4.51,3.91-4.14,1.41-6.7,1.41Z"/>
      <path class="cls-2" d="M314.92,58.77c-3.07,0-5.72-.64-7.95-1.92s-3.94-3.1-5.14-5.46-1.79-5.14-1.79-8.35.6-5.92,1.8-8.31,2.89-4.25,5.06-5.58c2.17-1.34,4.71-2,7.64-2,1.89,0,3.67.3,5.36.91,1.68.61,3.17,1.54,4.47,2.8,1.3,1.26,2.32,2.87,3.06,4.82.74,1.95,1.12,4.26,1.12,6.95v2.21h-25.11v-4.87h18.19c-.01-1.38-.31-2.62-.9-3.7-.58-1.08-1.4-1.94-2.44-2.56s-2.26-.94-3.64-.94c-1.48,0-2.77.36-3.89,1.07-1.12.71-1.98,1.64-2.6,2.79s-.93,2.41-.95,3.78v4.25c0,1.78.33,3.31.98,4.58.65,1.27,1.56,2.24,2.73,2.91s2.54,1.01,4.11,1.01c1.05,0,2-.15,2.85-.45.85-.3,1.59-.74,2.21-1.33.62-.58,1.1-1.31,1.42-2.17l6.74.76c-.43,1.78-1.23,3.33-2.42,4.66-1.19,1.32-2.71,2.35-4.56,3.07-1.85.72-3.96,1.09-6.34,1.09Z"/>
      <path class="cls-2" d="M341.02,17.32v40.85h-7.22V17.32h7.22Z"/>
      <path class="cls-2" d="M361.16,58.77c-3.07,0-5.72-.64-7.95-1.92s-3.94-3.1-5.14-5.46-1.79-5.14-1.79-8.35.6-5.92,1.8-8.31,2.89-4.25,5.06-5.58c2.17-1.34,4.71-2,7.64-2,1.89,0,3.67.3,5.36.91,1.68.61,3.17,1.54,4.47,2.8,1.3,1.26,2.32,2.87,3.06,4.82.74,1.95,1.12,4.26,1.12,6.95v2.21h-25.11v-4.87h18.19c-.01-1.38-.31-2.62-.9-3.7-.58-1.08-1.4-1.94-2.44-2.56s-2.26-.94-3.64-.94c-1.48,0-2.77.36-3.89,1.07-1.12.71-1.98,1.64-2.6,2.79s-.93,2.41-.95,3.78v4.25c0,1.78.33,3.31.98,4.58.65,1.27,1.56,2.24,2.73,2.91s2.54,1.01,4.11,1.01c1.05,0,2-.15,2.85-.45.85-.3,1.59-.74,2.21-1.33.62-.58,1.1-1.31,1.42-2.17l6.74.76c-.43,1.78-1.23,3.33-2.42,4.66-1.19,1.32-2.71,2.35-4.56,3.07-1.85.72-3.96,1.09-6.34,1.09Z"/>
      <path class="cls-2" d="M380.04,58.17v-30.64h7v5.11h.32c.56-1.77,1.52-3.13,2.88-4.1,1.36-.96,2.92-1.45,4.68-1.45.4,0,.85.02,1.35.05.5.03.91.08,1.25.15v6.64c-.31-.11-.79-.2-1.45-.29-.66-.09-1.29-.13-1.9-.13-1.32,0-2.5.28-3.54.85-1.04.57-1.87,1.35-2.46,2.34-.6,1-.9,2.15-.9,3.45v18.01h-7.22Z"/>
      <path class="cls-2" d="M409.72,58.79c-1.94,0-3.69-.35-5.24-1.05s-2.77-1.73-3.67-3.1c-.9-1.37-1.35-3.06-1.35-5.07,0-1.73.32-3.16.96-4.29.64-1.13,1.51-2.03,2.61-2.71,1.1-.68,2.35-1.19,3.74-1.55,1.39-.35,2.83-.61,4.32-.77,1.8-.19,3.25-.36,4.37-.51,1.12-.15,1.93-.39,2.44-.72.51-.33.77-.83.77-1.53v-.12c0-1.5-.45-2.67-1.34-3.49-.89-.82-2.17-1.24-3.85-1.24-1.77,0-3.17.39-4.2,1.16-1.03.77-1.73,1.68-2.08,2.73l-6.74-.96c.53-1.86,1.41-3.42,2.63-4.68,1.22-1.26,2.72-2.2,4.49-2.83s3.72-.95,5.86-.95c1.48,0,2.95.17,4.41.52s2.8.91,4.01,1.71,2.18,1.86,2.92,3.22c.74,1.36,1.11,3.05,1.11,5.09v20.5h-6.94v-4.21h-.24c-.44.85-1.05,1.65-1.84,2.38-.79.74-1.78,1.33-2.97,1.78-1.19.45-2.58.67-4.18.67ZM411.59,53.48c1.45,0,2.71-.29,3.77-.87s1.88-1.35,2.46-2.3c.58-.96.87-2,.87-3.13v-3.61c-.23.19-.61.36-1.15.52-.54.16-1.14.3-1.81.42-.67.12-1.32.23-1.97.32-.65.09-1.22.17-1.7.24-1.08.15-2.04.39-2.89.72-.85.33-1.52.79-2.01,1.39-.49.59-.74,1.35-.74,2.28,0,1.33.49,2.33,1.46,3.01.97.68,2.21,1.02,3.71,1.02Z"/>
      <path class="cls-2" d="M447.63,27.53v5.58h-17.61v-5.58h17.61ZM434.36,20.19h7.22v28.76c0,.97.15,1.71.45,2.22.3.51.69.86,1.19,1.05s1.04.28,1.64.28c.45,0,.87-.03,1.25-.1.38-.07.67-.13.87-.18l1.22,5.64c-.39.13-.93.28-1.65.44-.71.16-1.58.25-2.6.28-1.81.05-3.44-.22-4.89-.83-1.45-.6-2.6-1.55-3.44-2.82-.84-1.28-1.26-2.87-1.25-4.79v-29.96Z"/>
      <path class="cls-2" d="M465.87,58.77c-2.99,0-5.58-.66-7.78-1.97-2.19-1.32-3.89-3.16-5.1-5.53-1.2-2.37-1.8-5.13-1.8-8.3s.6-5.94,1.8-8.32c1.2-2.38,2.9-4.23,5.1-5.54,2.19-1.32,4.79-1.97,7.78-1.97s5.58.66,7.78,1.97c2.19,1.32,3.89,3.17,5.1,5.54,1.2,2.38,1.81,5.15,1.81,8.32s-.6,5.93-1.81,8.3c-1.2,2.37-2.9,4.21-5.1,5.53s-4.79,1.97-7.78,1.97ZM465.91,52.98c1.62,0,2.98-.45,4.07-1.35,1.09-.9,1.91-2.1,2.44-3.62s.81-3.2.81-5.07-.27-3.57-.81-5.1c-.54-1.52-1.35-2.74-2.44-3.64-1.09-.9-2.45-1.36-4.07-1.36s-3.04.45-4.14,1.36c-1.1.9-1.92,2.12-2.45,3.64-.54,1.52-.81,3.22-.81,5.1s.27,3.55.81,5.07c.54,1.52,1.36,2.72,2.45,3.62,1.1.9,2.48,1.35,4.14,1.35Z"/>
      <path class="cls-2" d="M485.81,58.17v-30.64h7v5.11h.32c.56-1.77,1.52-3.13,2.88-4.1,1.36-.96,2.92-1.45,4.68-1.45.4,0,.85.02,1.35.05.5.03.91.08,1.25.15v6.64c-.31-.11-.79-.2-1.45-.29-.66-.09-1.29-.13-1.9-.13-1.32,0-2.5.28-3.54.85-1.04.57-1.87,1.35-2.46,2.34-.6,1-.9,2.15-.9,3.45v18.01h-7.22Z"/>
    </g>
    <g>
      <g>
        <rect class="cls-1" x="537.5" y="50.73" width="7.07" height="19.31" transform="translate(115.77 400.25) rotate(-45)"/>
        <rect class="cls-1" x="553.38" y="33.28" width="7.07" height="39.75" transform="translate(200.7 -378.23) rotate(45)"/>
      </g>
      <circle class="cls-3" cx="577.63" cy="32.44" r="3.92"/>
      <rect class="cls-3" x="523.75" y="13.67" width="7.07" height="31.23" transform="translate(175.15 -364.27) rotate(45)"/>
      <circle class="cls-3" cx="545" cy="11.57" r="3.92"/>
      <rect class="cls-3" x="545.56" y="34.26" width="7.07" height="17.87" transform="translate(191.37 -375.62) rotate(45)"/>
      <circle class="cls-3" cx="562.07" cy="30.19" r="3.92"/>
      <rect class="cls-3" x="532.82" y="8.84" width="7.07" height="58.58" transform="translate(184.06 -368.1) rotate(45)"/>
      <circle class="cls-3" cx="563.65" cy="10.81" r="3.92"/>
    </g>
  </g>
</svg>
