<?xml version="1.0" encoding="UTF-8"?>
<svg id="Layer_1" xmlns="http://www.w3.org/2000/svg" version="1.1" viewBox="0 0 855.5 83">
  <!-- Generator: Adobe Illustrator 29.4.0, SVG Export Plug-In . SVG Version: 2.1.0 Build 152)  -->
  <defs>
    <style>
      .st0 {
        isolation: isolate;
      }

      .st1 {
        fill: #d49e00;
      }

      .st2 {
        fill: #fff;
      }

      .st3 {
        fill: #b3b3b3;
      }
    </style>
  </defs>
  <g>
    <path class="st2" d="M222.1,52.4c-.2,0-.5,0-.8.2-.4,0-.8,0-1.2,0s-1.2,0-1.7-.3-1-.6-1.3-1.1-.5-1.4-.5-2.6v-16.5h6.1v-4.7h-6.1v-7.2h-5.9v7.2h-4.4v4.7h4.4v17.7c0,1.8.4,3.3,1.2,4.5s1.9,2.1,3.2,2.7c1.3.6,2.8.9,4.3.8.9,0,1.7,0,2.3-.2.6-.2,1.1-.3,1.4-.4l-1-4.8h0Z"/>
    <path class="st2" d="M197.9,28.4c-1.5-.8-3.3-1.3-5.4-1.3s-4.2.5-5.6,1.4-2.5,2.2-3.2,3.9h-.4l.2-14.9h-5.7l-.2,39.9h5.9v-17.7c0-1.6.3-2.9.9-4,.6-1.1,1.5-2,2.6-2.6s2.3-.9,3.7-.9c2,0,3.6.6,4.7,1.8,1.1,1.2,1.7,2.9,1.7,5.1v18.4h5.9v-19c0-2.5-.4-4.6-1.3-6.3-.9-1.7-2.1-2.9-3.6-3.8h0Z"/>
    <path class="st2" d="M171.3,27.5h-5.7v4.9h-.4c-.4-.6-.8-1.3-1.5-2.1-.6-.8-1.5-1.5-2.7-2.1s-2.7-.9-4.5-.9-4.6.6-6.5,1.8c-1.9,1.2-3.4,3-4.5,5.2-1.1,2.3-1.6,5-1.6,8.2s.6,5.8,1.6,8c1.1,2.2,2.6,3.8,4.5,4.9,1.9,1.1,4,1.6,6.4,1.6s3.3-.3,4.5-.9c1.1-.6,2.1-1.2,2.7-2s1.2-1.5,1.5-2.1h.4v5.9c0,2.3-.7,4-2.1,5.1-1.4,1.1-3.3,1.6-5.5,1.6s-2.9-.2-3.9-.7-1.9-1-2.4-1.6c-.6-.6-1.1-1.2-1.4-1.8l-5,2c.5,1.2,1.3,2.3,2.4,3.3s2.5,1.8,4.1,2.5,3.7.9,6.1.9,4.8-.4,6.9-1.2c2.1-.8,3.6-2,4.9-3.6,1.2-1.6,1.8-3.7,1.8-6.3v-30.6h0ZM164.6,47.6c-.6,1.5-1.5,2.6-2.7,3.4-1.2.8-2.6,1.2-4.3,1.2s-3.2-.4-4.4-1.2c-1.2-.8-2.1-2-2.7-3.5s-.9-3.2-.9-5.2.3-3.6.9-5.2,1.5-2.8,2.6-3.7c1.2-.9,2.6-1.3,4.4-1.3s3.1.4,4.3,1.3,2.1,2,2.6,3.6c.6,1.5.9,3.3.9,5.3.1,2.1-.2,3.8-.8,5.3h0Z"/>
    <rect class="st2" x="132.9" y="27.5" width="5.9" height="30"/>
    <path class="st2" d="M135.8,16.9c-1.9,0-3.5,1.5-3.5,3.5s1.5,3.5,3.5,3.5,3.5-1.5,3.5-3.5-1.6-3.5-3.5-3.5Z"/>
    <path class="st2" d="M119.4,40.7l-4.8-1.1c-1.6-.4-2.9-.9-3.6-1.5s-1.1-1.4-1.1-2.4.6-2.1,1.6-2.8,2.5-1.1,4.2-1.1,2.2.2,3,.6c.8.4,1.4.9,1.9,1.5s.8,1.3,1,2l5.3-.9c-.6-2.4-1.8-4.2-3.7-5.6-1.8-1.4-4.4-2.1-7.6-2.1s-4.3.4-6,1.1-3.1,1.8-4.1,3.1c-1,1.3-1.5,2.9-1.5,4.6s.7,3.9,2,5.3c1.3,1.4,3.4,2.4,6.2,3l5.1,1.1c1.4.3,2.5.8,3.2,1.4.7.6,1,1.4,1,2.4s-.6,2.2-1.7,2.9c-1.1.8-2.7,1.2-4.6,1.2s-3.2-.4-4.3-1.1-1.8-1.8-2.2-3.3l-5.6.9c.5,2.7,1.8,4.7,3.9,6.1,2.1,1.4,4.9,2.2,8.2,2.2s4.6-.4,6.4-1.2,3.3-1.9,4.3-3.3c1-1.4,1.5-3,1.5-4.8s-.7-3.8-2-5.2c-1.2-1.3-3.3-2.3-6.1-2.9h0Z"/>
    <path class="st2" d="M93.8,28.4c-1.5-.9-3.3-1.3-5.3-1.3s-4.1.5-5.6,1.4-2.6,2.3-3.2,3.8h-.4v-4.9h-5.6v30h5.8v-17.7c0-1.6.3-2.9.9-4s1.4-2,2.5-2.6c1-.6,2.3-.9,3.6-.9,2,0,3.5.6,4.7,1.8s1.7,2.9,1.7,5.1v18.4h5.8v-19.1c0-2.5-.4-4.6-1.3-6.2-.9-1.7-2.1-3-3.6-3.8h0Z"/>
    <rect class="st2" x="61.1" y="27.5" width="5.8" height="30"/>
    <path class="st2" d="M64,16.9c-2,0-3.5,1.5-3.5,3.5s1.5,3.5,3.5,3.5,3.5-1.5,3.5-3.5-1.5-3.5-3.5-3.5Z"/>
    <path class="st2" d="M47,20.6c-2.8-1.5-6-2.4-9.9-2.4h-14v5.2h13.7c2.9,0,5.2.6,7.2,1.6,2,1.1,3.4,2.7,4.4,4.9,1,2.2,1.5,4.7,1.5,7.8s-.5,5.7-1.5,7.8c-1,2.2-2.5,3.8-4.5,4.9-2,1.1-4.5,1.7-7.4,1.7h-7.7v-24.7h-5.7v29.8h13.7c4,0,7.4-.8,10.1-2.4,2.8-1.6,5-3.8,6.4-6.8,1.5-2.9,2.2-6.4,2.2-10.5s-.7-7.5-2.2-10.5c-1.4-2.9-3.5-5.1-6.3-6.7h0Z"/>
    <rect class="st2" x="10.5" y="18.2" width="5.8" height="39.2"/>
  </g>
  <g class="st0">
    <g class="st0">
      <path class="st1" d="M300.8,28.1c-.2-1.7-1-3.1-2.3-4.1-1.4-1-3.2-1.5-5.4-1.5s-2.9.2-4,.7c-1.1.5-1.9,1.1-2.5,1.9-.6.8-.9,1.7-.9,2.7,0,.9.2,1.6.6,2.2.4.6.9,1.2,1.6,1.6.7.4,1.4.8,2.3,1.1.8.3,1.7.5,2.5.7l3.8,1c1.5.4,3,.8,4.5,1.5,1.4.6,2.7,1.4,3.9,2.3,1.1.9,2,2.1,2.7,3.4.7,1.3,1,2.9,1,4.6s-.6,4.5-1.8,6.3-3,3.2-5.3,4.2c-2.3,1-5.1,1.5-8.4,1.5s-5.9-.5-8.3-1.5c-2.3-1-4.2-2.4-5.5-4.3-1.3-1.9-2-4.2-2.1-6.9h7.3c.1,1.4.5,2.6,1.3,3.5.8.9,1.8,1.6,3,2.1,1.2.5,2.6.7,4.2.7s3-.2,4.2-.7,2.2-1.2,2.9-2c.7-.9,1-1.9,1.1-3.1,0-1.1-.3-1.9-.9-2.6-.6-.7-1.5-1.3-2.6-1.8-1.1-.5-2.4-.9-3.8-1.3l-4.6-1.2c-3.4-.9-6-2.2-8-3.9-1.9-1.8-2.9-4.1-2.9-7s.7-4.5,2-6.3c1.3-1.8,3.1-3.2,5.4-4.2s4.8-1.5,7.7-1.5,5.4.5,7.6,1.5,3.9,2.4,5.2,4.2,1.9,3.8,1.9,6.1h-7.1Z"/>
      <path class="st1" d="M334.3,44.8v-17.8h7.2v30.6h-7v-5.4h-.3c-.7,1.7-1.8,3.1-3.4,4.2-1.6,1.1-3.5,1.6-5.8,1.6s-3.8-.4-5.3-1.3c-1.5-.9-2.7-2.2-3.6-3.9-.9-1.7-1.3-3.8-1.3-6.3v-19.5h7.2v18.4c0,1.9.5,3.5,1.6,4.6,1.1,1.1,2.5,1.7,4.2,1.7s2.1-.3,3.1-.8c1-.5,1.8-1.3,2.5-2.3s1-2.3,1-3.9Z"/>
    </g>
    <g class="st0">
      <path class="st1" d="M347.3,57.7v-30.6h7v5.1h.3c.6-1.8,1.5-3.1,2.9-4.1,1.4-1,2.9-1.4,4.7-1.4s.8,0,1.3,0c.5,0,.9,0,1.2.1v6.6c-.3-.1-.8-.2-1.4-.3-.7,0-1.3-.1-1.9-.1-1.3,0-2.5.3-3.5.8-1,.6-1.9,1.3-2.5,2.3-.6,1-.9,2.1-.9,3.5v18h-7.2Z"/>
    </g>
    <g class="st0">
      <path class="st1" d="M397,27.1l-10.9,30.6h-8l-10.9-30.6h7.7l7,22.8h.3l7.1-22.8h7.7Z"/>
    </g>
    <g class="st0">
      <path class="st1" d="M413.7,58.3c-3.1,0-5.7-.6-7.9-1.9-2.2-1.3-3.9-3.1-5.1-5.5s-1.8-5.1-1.8-8.3.6-5.9,1.8-8.3,2.9-4.2,5.1-5.6c2.2-1.3,4.7-2,7.6-2s3.7.3,5.4.9c1.7.6,3.2,1.5,4.5,2.8,1.3,1.3,2.3,2.9,3.1,4.8s1.1,4.3,1.1,7v2.2h-25.1v-4.9h18.2c0-1.4-.3-2.6-.9-3.7-.6-1.1-1.4-1.9-2.4-2.6s-2.3-.9-3.6-.9-2.8.4-3.9,1.1c-1.1.7-2,1.6-2.6,2.8-.6,1.2-.9,2.4-.9,3.8v4.2c0,1.8.3,3.3,1,4.6.7,1.3,1.6,2.2,2.7,2.9,1.2.7,2.5,1,4.1,1s2-.1,2.9-.4c.9-.3,1.6-.7,2.2-1.3s1.1-1.3,1.4-2.2l6.7.8c-.4,1.8-1.2,3.3-2.4,4.7-1.2,1.3-2.7,2.3-4.6,3.1-1.8.7-4,1.1-6.3,1.1Z"/>
    </g>
    <g class="st0">
      <path class="st1" d="M436.1,69.1c-1,0-1.9,0-2.7-.2-.8-.2-1.5-.3-2-.5l1.7-5.6c1.6.5,2.9.5,4,.2,1.1-.3,2-1.3,2.6-3l.6-1.7-11.1-31.3h7.7l7.1,23.1h.3l7.1-23.1h7.7s-12.3,34.3-12.3,34.3c-.6,1.6-1.3,3-2.3,4.1-.9,1.2-2.1,2-3.5,2.7-1.4.6-3,.9-4.9.9Z"/>
    </g>
  </g>
  <g class="st0">
    <g class="st0">
      <path class="st2" d="M468.3,58.2h-7.9l14.4-40.9h9.1l14.4,40.9h-7.9l-10.9-32.5h-.3l-10.9,32.5ZM468.6,42.2h21.5v5.9h-21.5v-5.9Z"/>
    </g>
    <g class="st0">
      <path class="st2" d="M515,58.8c-3.1,0-5.7-.7-7.9-2s-3.9-3.2-5-5.6c-1.2-2.4-1.8-5.1-1.8-8.2s.6-5.9,1.8-8.2c1.2-2.4,2.9-4.2,5.1-5.6,2.2-1.3,4.8-2,7.8-2s4.7.5,6.6,1.4c1.9.9,3.5,2.2,4.6,3.8,1.1,1.7,1.8,3.6,2,5.8h-6.9c-.3-1.5-.9-2.7-2-3.7s-2.4-1.5-4.2-1.5-2.8.4-3.9,1.2-2,1.9-2.6,3.4c-.6,1.5-.9,3.2-.9,5.3s.3,3.9.9,5.4c.6,1.5,1.5,2.6,2.6,3.5,1.1.8,2.4,1.2,3.9,1.2s2-.2,2.9-.6c.8-.4,1.6-1,2.1-1.8.6-.8,1-1.7,1.2-2.8h6.9c-.2,2.2-.8,4.1-1.9,5.8-1.1,1.7-2.6,3-4.5,3.9-1.9.9-4.1,1.4-6.7,1.4Z"/>
      <path class="st2" d="M547.4,58.8c-3.1,0-5.7-.7-7.9-2-2.2-1.3-3.9-3.2-5-5.6s-1.8-5.1-1.8-8.2.6-5.9,1.8-8.2c1.2-2.4,2.9-4.2,5.1-5.6,2.2-1.3,4.8-2,7.8-2s4.7.5,6.6,1.4c1.9.9,3.5,2.2,4.6,3.8,1.1,1.7,1.8,3.6,2,5.8h-6.9c-.3-1.5-.9-2.7-2-3.7s-2.4-1.5-4.2-1.5-2.8.4-3.9,1.2-2,1.9-2.6,3.4c-.6,1.5-.9,3.2-.9,5.3s.3,3.9.9,5.4,1.5,2.6,2.6,3.5,2.4,1.2,3.9,1.2,2-.2,2.9-.6c.8-.4,1.6-1,2.1-1.8.6-.8,1-1.7,1.2-2.8h6.9c-.2,2.2-.8,4.1-1.9,5.8-1.1,1.7-2.6,3-4.5,3.9-1.9.9-4.1,1.4-6.7,1.4Z"/>
      <path class="st2" d="M580,58.8c-3.1,0-5.7-.6-7.9-1.9-2.2-1.3-3.9-3.1-5.1-5.5-1.2-2.4-1.8-5.1-1.8-8.3s.6-5.9,1.8-8.3c1.2-2.4,2.9-4.2,5.1-5.6,2.2-1.3,4.7-2,7.6-2s3.7.3,5.4.9c1.7.6,3.2,1.5,4.5,2.8,1.3,1.3,2.3,2.9,3.1,4.8.7,1.9,1.1,4.3,1.1,7v2.2h-25.1v-4.9h18.2c0-1.4-.3-2.6-.9-3.7s-1.4-1.9-2.4-2.6-2.3-.9-3.6-.9-2.8.4-3.9,1.1c-1.1.7-2,1.6-2.6,2.8-.6,1.2-.9,2.4-.9,3.8v4.2c0,1.8.3,3.3,1,4.6.7,1.3,1.6,2.2,2.7,2.9,1.2.7,2.5,1,4.1,1s2-.1,2.9-.4c.9-.3,1.6-.7,2.2-1.3s1.1-1.3,1.4-2.2l6.7.8c-.4,1.8-1.2,3.3-2.4,4.7-1.2,1.3-2.7,2.3-4.6,3.1-1.8.7-4,1.1-6.3,1.1Z"/>
      <path class="st2" d="M607,17.3v40.9h-7.2V17.3h7.2Z"/>
      <path class="st2" d="M628,58.8c-3.1,0-5.7-.6-7.9-1.9-2.2-1.3-3.9-3.1-5.1-5.5-1.2-2.4-1.8-5.1-1.8-8.3s.6-5.9,1.8-8.3c1.2-2.4,2.9-4.2,5.1-5.6,2.2-1.3,4.7-2,7.6-2s3.7.3,5.4.9c1.7.6,3.2,1.5,4.5,2.8,1.3,1.3,2.3,2.9,3.1,4.8.7,1.9,1.1,4.3,1.1,7v2.2h-25.1v-4.9h18.2c0-1.4-.3-2.6-.9-3.7s-1.4-1.9-2.4-2.6-2.3-.9-3.6-.9-2.8.4-3.9,1.1c-1.1.7-2,1.6-2.6,2.8-.6,1.2-.9,2.4-.9,3.8v4.2c0,1.8.3,3.3,1,4.6.7,1.3,1.6,2.2,2.7,2.9,1.2.7,2.5,1,4.1,1s2-.1,2.9-.4c.9-.3,1.6-.7,2.2-1.3s1.1-1.3,1.4-2.2l6.7.8c-.4,1.8-1.2,3.3-2.4,4.7-1.2,1.3-2.7,2.3-4.6,3.1-1.8.7-4,1.1-6.3,1.1Z"/>
    </g>
    <g class="st0">
      <path class="st2" d="M643.5,58.2v-30.6h7v5.1h.3c.6-1.8,1.5-3.1,2.9-4.1,1.4-1,2.9-1.4,4.7-1.4s.8,0,1.3,0c.5,0,.9,0,1.2.1v6.6c-.3-.1-.8-.2-1.4-.3-.7,0-1.3-.1-1.9-.1-1.3,0-2.5.3-3.5.8-1,.6-1.9,1.3-2.5,2.3s-.9,2.1-.9,3.5v18h-7.2Z"/>
    </g>
    <g class="st0">
      <path class="st2" d="M673.2,58.8c-1.9,0-3.7-.3-5.2-1-1.5-.7-2.8-1.7-3.7-3.1-.9-1.4-1.3-3.1-1.3-5.1s.3-3.2,1-4.3c.6-1.1,1.5-2,2.6-2.7,1.1-.7,2.4-1.2,3.7-1.5,1.4-.4,2.8-.6,4.3-.8,1.8-.2,3.3-.4,4.4-.5,1.1-.2,1.9-.4,2.4-.7s.8-.8.8-1.5h0c0-1.6-.4-2.8-1.3-3.6-.9-.8-2.2-1.2-3.8-1.2s-3.2.4-4.2,1.2c-1,.8-1.7,1.7-2.1,2.7l-6.7-1c.5-1.9,1.4-3.4,2.6-4.7,1.2-1.3,2.7-2.2,4.5-2.8,1.8-.6,3.7-.9,5.9-.9s2.9.2,4.4.5,2.8.9,4,1.7c1.2.8,2.2,1.9,2.9,3.2s1.1,3.1,1.1,5.1v20.5h-6.9v-4.2h-.2c-.4.9-1.1,1.6-1.8,2.4s-1.8,1.3-3,1.8c-1.2.4-2.6.7-4.2.7ZM675,53.5c1.4,0,2.7-.3,3.8-.9,1.1-.6,1.9-1.3,2.5-2.3.6-1,.9-2,.9-3.1v-3.6c-.2.2-.6.4-1.1.5-.5.2-1.1.3-1.8.4-.7.1-1.3.2-2,.3-.7,0-1.2.2-1.7.2-1.1.1-2,.4-2.9.7-.9.3-1.5.8-2,1.4-.5.6-.7,1.4-.7,2.3,0,1.3.5,2.3,1.5,3,1,.7,2.2,1,3.7,1Z"/>
    </g>
    <g class="st0">
      <path class="st2" d="M711.1,27.5v5.6h-17.6v-5.6h17.6ZM697.8,20.2h7.2v28.8c0,1,.1,1.7.4,2.2.3.5.7.9,1.2,1,.5.2,1,.3,1.6.3s.9,0,1.2,0,.7-.1.9-.2l1.2,5.6c-.4.1-.9.3-1.6.4-.7.2-1.6.3-2.6.3-1.8,0-3.4-.2-4.9-.8-1.5-.6-2.6-1.5-3.4-2.8s-1.3-2.9-1.2-4.8v-30Z"/>
    </g>
    <g class="st0">
      <path class="st2" d="M729.3,58.8c-3,0-5.6-.7-7.8-2s-3.9-3.2-5.1-5.5c-1.2-2.4-1.8-5.1-1.8-8.3s.6-5.9,1.8-8.3c1.2-2.4,2.9-4.2,5.1-5.5s4.8-2,7.8-2,5.6.7,7.8,2,3.9,3.2,5.1,5.5c1.2,2.4,1.8,5.2,1.8,8.3s-.6,5.9-1.8,8.3c-1.2,2.4-2.9,4.2-5.1,5.5s-4.8,2-7.8,2ZM729.4,53c1.6,0,3-.4,4.1-1.3,1.1-.9,1.9-2.1,2.4-3.6.5-1.5.8-3.2.8-5.1s-.3-3.6-.8-5.1c-.5-1.5-1.4-2.7-2.4-3.6-1.1-.9-2.4-1.4-4.1-1.4s-3,.5-4.1,1.4c-1.1.9-1.9,2.1-2.5,3.6-.5,1.5-.8,3.2-.8,5.1s.3,3.6.8,5.1c.5,1.5,1.4,2.7,2.5,3.6,1.1.9,2.5,1.3,4.1,1.3Z"/>
      <path class="st2" d="M750.1,58.2v-30.6h7v5.1h.3c.6-1.8,1.5-3.1,2.9-4.1s2.9-1.4,4.7-1.4.8,0,1.3,0c.5,0,.9,0,1.2.1v6.6c-.3-.1-.8-.2-1.4-.3-.7,0-1.3-.1-1.9-.1-1.3,0-2.5.3-3.5.8-1,.6-1.9,1.3-2.5,2.3-.6,1-.9,2.1-.9,3.5v18h-7.2Z"/>
    </g>
  </g>
  <g>
    <g>
      <rect class="st1" x="800.9" y="50.7" width="7.1" height="19.3" transform="translate(192.9 586.5) rotate(-45)"/>
      <rect class="st1" x="800.5" y="49.6" width="39.7" height="7.1" transform="translate(202.7 595.6) rotate(-45)"/>
    </g>
    <circle class="st3" cx="841.1" cy="32.4" r="3.9"/>
    <rect class="st3" x="775.1" y="25.7" width="31.2" height="7.1" transform="translate(210.9 567.7) rotate(-45)"/>
    <circle class="st3" cx="808.4" cy="11.6" r="3.9"/>
    <rect class="st3" x="803.6" y="39.7" width="17.9" height="7.1" transform="translate(207.4 587.2) rotate(-45)"/>
    <circle class="st3" cx="825.5" cy="30.2" r="3.9"/>
    <rect class="st3" x="770.5" y="34.6" width="58.6" height="7.1" transform="translate(207.3 576.7) rotate(-45)"/>
    <circle class="st3" cx="827.1" cy="10.8" r="3.9"/>
  </g>
  <rect class="st2" x="251.6" y="11.5" width="2.8" height="57.7"/>
</svg>
